<?xml version="1.0" standalone="no"?>
<!DOCTYPE svg PUBLIC "-//W3C//DTD SVG 20010904//EN"
 "http://www.w3.org/TR/2001/REC-SVG-20010904/DTD/svg10.dtd">
<svg version="1.0" xmlns="http://www.w3.org/2000/svg"
 width="800.000000pt" height="800.000000pt" viewBox="0 0 800.000000 800.000000"
 preserveAspectRatio="xMidYMid meet">
<metadata>
Created by potrace 1.14, written by Peter Selinger 2001-2017
</metadata>
<g transform="translate(0.000000,800.000000) scale(0.100000,-0.100000)"
fill="#000000" stroke="none">
<path d="M3932 7293 c-76 -130 -248 -428 -280 -483 -10 -19 -58 -102 -106
-183 -47 -82 -86 -154 -86 -161 0 -6 18 -43 41 -81 22 -39 51 -88 64 -110 50
-89 314 -543 343 -593 18 -29 32 -55 32 -58 0 -3 8 -18 19 -32 10 -15 29 -47
43 -72 21 -38 208 -361 453 -785 112 -194 393 -680 412 -715 11 -19 53 -91 93
-160 40 -68 81 -138 90 -155 9 -16 59 -102 110 -190 109 -188 124 -214 148
-257 11 -18 45 -78 77 -133 32 -55 106 -183 165 -285 101 -175 198 -343 375
-650 354 -610 547 -946 548 -953 1 -7 -608 -13 -699 -8 -8 1 -151 235 -240
396 -21 38 -127 220 -130 224 -4 4 -2834 4 -2838 0 -2 -2 -23 -40 -48 -84 -24
-44 -87 -154 -140 -245 -53 -91 -108 -188 -123 -215 -15 -28 -31 -54 -35 -60
-7 -9 -130 -220 -244 -420 -28 -49 -55 -98 -61 -107 -5 -9 -24 -41 -42 -72
l-31 -56 3050 0 c1677 0 3047 3 3045 8 -10 18 -207 359 -275 477 -41 72 -91
157 -110 190 -47 82 -46 80 -252 435 -100 173 -191 331 -202 350 -51 89 -296
514 -341 590 -47 80 -59 101 -106 183 -10 17 -87 151 -171 297 -85 146 -159
275 -164 287 -6 13 -14 23 -18 23 -5 0 -8 5 -8 11 0 5 -31 63 -69 127 -37 64
-180 311 -316 547 -137 237 -335 580 -442 764 -106 184 -193 338 -193 343 0 4
-4 8 -10 8 -5 0 -10 5 -10 10 0 6 -49 95 -109 198 -107 184 -583 1007 -636
1100 -11 19 -67 117 -305 527 -89 154 -171 295 -180 313 l-18 34 -70 -119z"/>
<path d="M3076 5816 c-9 -14 -16 -28 -16 -32 0 -3 -8 -18 -19 -32 -10 -15 -31
-49 -46 -77 -37 -67 -92 -163 -115 -200 -9 -16 -163 -282 -340 -590 -178 -308
-351 -607 -385 -665 -34 -58 -64 -112 -68 -120 -4 -8 -17 -31 -28 -50 -12 -19
-111 -190 -220 -380 -110 -190 -203 -352 -208 -360 -6 -8 -56 -96 -113 -194
-57 -98 -114 -197 -127 -220 -13 -23 -32 -54 -41 -71 -70 -121 -151 -263 -159
-275 -5 -8 -44 -76 -87 -150 -82 -143 -213 -369 -489 -845 -92 -159 -177 -306
-188 -325 -23 -41 -106 -186 -124 -215 -7 -11 -15 -27 -19 -35 -4 -8 -34 -59
-66 -113 -32 -53 -58 -100 -58 -104 0 -4 -6 -14 -13 -22 -8 -9 -30 -46 -51
-83 l-37 -68 533 0 533 0 33 57 c41 74 72 128 162 283 40 69 81 141 92 160 11
19 81 141 156 270 122 212 163 284 199 345 7 11 38 65 70 120 32 55 62 108 68
117 5 9 23 41 39 70 16 29 36 64 46 78 9 14 20 32 23 40 4 8 17 31 28 50 19
32 111 190 327 565 41 72 83 144 92 160 10 17 44 75 75 130 32 55 82 141 110
190 29 50 71 122 93 162 71 122 77 133 192 333 62 107 123 212 134 232 12 21
25 38 30 39 5 0 70 -104 144 -233 74 -128 148 -255 164 -283 16 -27 34 -60 40
-72 9 -19 -18 -72 -234 -445 -134 -233 -251 -433 -258 -445 -8 -12 -11 -25 -7
-29 9 -9 2087 -11 2093 -3 2 4 -7 22 -19 40 -13 19 -26 41 -30 49 -3 8 -19 36
-34 62 -23 38 -195 336 -301 521 -28 48 -278 479 -381 657 -40 69 -76 132 -82
140 -8 14 -235 408 -281 490 -79 138 -258 446 -289 498 -22 35 -39 65 -39 67
0 2 -70 123 -155 270 -85 146 -155 268 -155 270 0 1 -18 33 -41 70 -40 66 -57
95 -100 173 -30 54 -34 56 -53 28z"/>
</g>
</svg>
